Coordinates
version=1
nRows=5
nColumns=40
inDegrees=yes

Units are S.I. units (second, meters, Newtons, ...)
If the header above contains a line with 'inDegrees', this indicates whether rotational values are in degrees (yes) or radians (no).

endheader
time	pelvis_tilt	pelvis_list	pelvis_rotation	pelvis_tx	pelvis_ty	pelvis_tz	hip_flexion_r	hip_adduction_r	hip_rotation_r	knee_angle_r	knee_angle_r_beta	ankle_angle_r	subtalar_angle_r	mtp_angle_r	hip_flexion_l	hip_adduction_l	hip_rotation_l	knee_angle_l	knee_angle_l_beta	ankle_angle_l	subtalar_angle_l	mtp_angle_l	lumbar_extension	lumbar_bending	lumbar_rotation	arm_flex_r	arm_add_r	arm_rot_r	elbow_flex_r	pro_sup_r	wrist_flex_r	wrist_dev_r	arm_flex_l	arm_add_l	arm_rot_l	elbow_flex_l	pro_sup_l	wrist_flex_l	wrist_dev_l
      7.38000000	    -10.90012691	     -0.97031521	      0.75145440	     -0.38538992	      0.86756543	     -0.89200308	     43.56876177	    -14.84908899	    -14.83277597	     66.21314521	      1.15563739	     33.98198199	      0.00000000	      0.00000000	     46.82464080	    -19.06417360	    -12.98032694	     67.06397487	      1.17048717	     26.70591924	      0.00000000	      0.00000000	    -18.31068403	     -0.23229722	      7.11701130	     27.32026171	    -45.59624155	     88.31901551	     84.80125636	     87.95057651	      0.00000000	      0.00000000	     32.01365009	    -46.34684116	     89.10989974	     93.64719920	     88.01314047	      0.00000000	      0.00000000
      7.38500000	    -10.37753742	     -0.92485918	      0.61776029	     -0.38101201	      0.87699266	     -0.89226481	     41.74099685	    -14.80676361	    -15.59806403	     64.24611538	      1.12130624	     33.01335869	      0.00000000	      0.00000000	     44.92500391	    -19.01072191	    -13.76440903	     65.27553239	      1.13927296	     25.87132118	      0.00000000	      0.00000000	    -17.80712011	     -0.22505266	      7.26764601	     26.97835624	    -45.29872711	     88.37648682	     84.04842332	     87.95604379	      0.00000000	      0.00000000	     31.79808910	    -46.01080904	     89.12573737	     92.92666010	     88.02275558	      0.00000000	      0.00000000
      7.39000000	     -9.89022546	     -1.08549347	      0.67958565	     -0.37696410	      0.88665965	     -0.89255608	     39.83380565	    -14.63386162	    -16.59880216	     62.12347850	      1.08425924	     31.91012433	      0.00000000	      0.00000000	     43.23713936	    -18.93013471	    -14.11051722	     63.56508137	      1.10941996	     24.17249176	      0.00000000	      0.00000000	    -17.28291209	      0.04058904	      7.24144661	     26.72904801	    -44.98884145	     88.38649361	     83.24609982	     87.94543928	      0.00000000	      0.00000000	     31.60912833	    -45.72585324	     89.12927201	     92.25205025	     88.02670242	      0.00000000	      0.00000000
      7.39500000	     -9.29845235	     -1.17158950	      0.70281842	     -0.37258327	      0.89677095	     -0.89280955	     37.77796142	    -14.50767120	    -17.66424674	     59.92065925	      1.04581279	     30.65240615	      0.00000000	      0.00000000	     41.32318304	    -18.86853446	    -14.68119475	     61.67992218	      1.07651772	     22.84061949	      0.00000000	      0.00000000	    -16.88901456	      0.19906876	      7.23468359	     26.46123538	    -44.71917030	     88.41472645	     82.54164675	     87.93706496	      0.00000000	      0.00000000	     31.41389138	    -45.44842434	     89.15229868	     91.62962691	     88.03007399	      0.00000000	      0.00000000
      7.40000000	     -8.88048170	     -1.06961568	      0.67673964	     -0.36823603	      0.90710757	     -0.89308654	     35.95543314	    -14.45125118	    -18.46830970	     57.64112216	      1.00602737	     29.12925836	      0.00000000	      0.00000000	     39.46472994	    -18.61607874	    -15.39941117	     59.63003564	      1.04074045	     21.30907660	      0.00000000	      0.00000000	    -16.29118227	      0.13610589	      7.15734255	     26.15216966	    -44.28329209	     88.45219278	     81.50898527	     87.92920574	      0.00000000	      0.00000000	     31.15573393	    -45.11508038	     89.16083258	     90.83788044	     88.03647772	      0.00000000	      0.00000000
